# xmcd
#
# Track frame offsets:
#	150
#	16775
#	32489
#	59056
#	73661
#	92934
#	134000
#	151817
#	174254
#
# Disc length: 2494 seconds
#
# Revision: 0
# Processed by: cddbd v1.5.2PL0 Copyright (c) Steve Scherf et al.
# Submitted via: dBpowerAMP V4.0
#
DISCID=7309bc09
DTITLE=Albert King - New Orleans Heat
DYEAR=1900
DGENRE=
TTITLE0=Get Out Of My life Woman
TTITLE1=Born Under A Bad Sign
TTITLE2=Angel Of Mercy
TTITLE3=We All Wanna Boogie
TTITLE4=The Very Thought Of You
TTITLE5=I Got The Blues
TTITLE6=I Get Evil
TTITLE7=The Feeling
TTITLE8=Flat Tire
EXTD=
EXTT0=
EXTT1=
EXTT2=
EXTT3=
EXTT4=
EXTT5=
EXTT6=
EXTT7=
EXTT8=
PLAYORDER=
